HIERARCHY
ROOT pelvis
{
  OFFSET 0 100 0
  CHANNELS 6 Xposition Yposition Zposition Zrotation Xrotation Yrotation
  JOINT pelvis_right_femur
  {
    OFFSET -10.78128 -3.44521 -0.5502486
    CHANNELS 3 Zrotation Xrotation Yrotation
    JOINT right_femur_tibia
    {
      OFFSET -0.8047443 -44.0398 -0.1307829
      CHANNELS 3 Zrotation Xrotation Yrotation
      JOINT right_tibia_foot
      {
        OFFSET 3.006224 -47.83518 -5
        CHANNELS 3 Zrotation Xrotation Yrotation
        End Site
        {
          OFFSET 0 -5 15
        }
      }
    }
  }
  JOINT pelvis_left_femur
  {
    OFFSET 10.78128 -3.44521 -0.5502486
    CHANNELS 3 Zrotation Xrotation Yrotation
    JOINT left_femur_tibia
    {
      OFFSET 0.8047443 -44.0398 -0.1307829
      CHANNELS 3 Zrotation Xrotation Yrotation
      JOINT left_tibia_foot
      {
        OFFSET -4.370144 -48.10324 -4.275266
        CHANNELS 3 Zrotation Xrotation Yrotation
        End Site
        {
          OFFSET 0 -5 15
        }
      }
    }
  }
  JOINT pelvis_spine1
  {
    OFFSET 0 6.468898 -3.129235
    CHANNELS 3 Zrotation Xrotation Yrotation
    JOINT spine1
    {
      OFFSET 0 23.15396 4.99043
      CHANNELS 3 Zrotation Xrotation Yrotation
      JOINT spine2
      {
        OFFSET 0 20.79997 -5.064912
        CHANNELS 3 Zrotation Xrotation Yrotation
        JOINT neck
        {
          OFFSET 0 14.38658 9.616178
          CHANNELS 3 Zrotation Xrotation Yrotation
          End Site
          {
            OFFSET 0 20 0
          }
        }
      }
      JOINT right_manubrium
      {
        OFFSET -5.722621 16.35077 3.967754
        CHANNELS 3 Zrotation Xrotation Yrotation
        JOINT right_clavicle
        {
          OFFSET -13.16364 1.694482 -4.693211
          CHANNELS 3 Zrotation Xrotation Yrotation
          JOINT right_humerus
          {
            OFFSET -28.5034 -0.3100689 -2.792744
            CHANNELS 3 Zrotation Xrotation Yrotation
            JOINT right_radius
            {
              OFFSET -25.15693 0.02248979 -1.271978
              CHANNELS 3 Zrotation Xrotation Yrotation
              End Site
              {
                OFFSET -15 0 0
              }
            }
          }
        }
      }
      JOINT left_manubrium
      {
        OFFSET 5.722621 16.35077 3.967754
        CHANNELS 3 Zrotation Xrotation Yrotation
        JOINT left_clavicle
        {
          OFFSET 13.16364 1.694482 -4.693211
          CHANNELS 3 Zrotation Xrotation Yrotation
          JOINT left_humerus
          {
            OFFSET 29.39168 -1.063119 -2.237045
            CHANNELS 3 Zrotation Xrotation Yrotation
            JOINT left_radius
            {
              OFFSET 24.59957 -0.9528479 0.9047498
              CHANNELS 3 Zrotation Xrotation Yrotation
              End Site
              {
                OFFSET 15 -0 -0
              }
            }
          }
        }
      }
    }
  }
}
MOTION
Frames: 9
Frame Time: 0.0416666666667
0 103.5113 0 1.538567 -2.931547 0.2241369 1.256925 -10.55862 7.074688 -0 40.84993 -0 -6.718448 -16.57908 -4.067814 -6.892681 12.17054 -24.17633 -0 5.592691 -0 -0.09199818 -19.17033 23.2035 -0.4756522 -2.18949 4.95891 -0.5963798 7.391479 -6.811101 1.569215 22.08357 8.724035 5.999002 -21.9961 9.117749 6.090962 -18.54993 10.02721 88.38861 36.51949 -23.60269 -0 0 17.3987 -6.440962 7.744142 2.116313 7.84482 -21.28218 -2.196177 -101.3446 42.514 28.86802 0 0 -25.96074 -8.064197 17.22942 26.38855
0.130235 103.6789 1.166805 1.185748 -2.137759 0.3239795 1.666946 -11.92352 7.885753 -0 41.6319 -0 -6.75439 -17.36782 -4.819221 -6.653623 12.26402 -24.48592 -0 5.810274 -0 -1.805309 -20.30316 22.73063 -0.4139663 -2.19354 5.153073 -0.7514234 7.459981 -6.7148 1.592467 22.06379 8.758117 6.069832 -21.91396 9.123161 6.066245 -18.64242 9.991344 88.3109 36.79584 -23.42424 -0 0 17.51183 -6.614603 7.914362 2.083281 7.993759 -21.40967 -2.05225 -101.482 42.50523 29.04848 0 0 -26.06432 -7.75167 17.26514 26.21439
0.2417612 103.6408 2.593317 0.3627313 -1.294227 0.3592549 3.084666 -17.61732 7.242686 -0 38.28283 -0 -6.889194 -14.83824 -4.365363 -5.983342 12.53368 -23.63572 -0 5.785218 -0 -1.670892 -21.75724 22.06475 -0.7589505 -1.688763 4.352383 0.2453585 7.331479 -7.153078 1.389864 22.15629 8.380321 5.476669 -22.49779 8.754263 5.951195 -18.12668 10.33992 88.3346 36.68453 -23.21912 -0 0 15.98134 -7.5613 8.612101 3.246915 6.896118 -20.91822 -2.476619 -99.25685 40.98019 27.09355 0 0 -25.27731 -7.946021 16.90901 26.05338
0.3450994 103.4527 4.24987 -0.247202 -0.4865089 0.3830933 4.159646 -21.89293 7.131307 -0 35.54813 -0 -6.747769 -13.0773 -4.231654 -5.48792 12.73124 -22.97848 -0 5.87223 -0 -1.948081 -22.96427 21.33401 -0.8767431 -1.480909 4.019007 0.6485046 7.323935 -7.354149 1.307815 22.15705 8.24062 5.245233 -22.70902 8.601352 5.91463 -17.87797 10.48388 88.42592 36.65292 -23.23461 -0 0 15.28381 -8.000974 8.980433 3.736895 6.497012 -20.78911 -2.655197 -98.231 40.23647 26.14307 0 0 -25.05393 -7.907515 16.73332 25.87894
0.4635225 103.0389 6.305009 -0.7917325 0.4032677 0.4118437 5.260305 -26.67154 6.774221 -0 31.35498 -0 -6.419002 -10.61895 -3.798481 -5.07058 13.02435 -21.99351 -0 6.017208 -0 -1.568864 -24.00109 20.54144 -1.036032 -1.25858 3.565499 1.159541 7.289174 -7.619041 1.208068 22.16261 8.077511 4.964905 -22.97232 8.433665 5.896611 -17.55028 10.65868 88.54669 36.45276 -23.33861 -0 0 14.4632 -8.394096 9.278465 4.28917 6.010927 -20.59128 -2.915776 -97.06105 39.39907 24.99916 0 0 -24.75947 -7.966988 16.50013 25.69843
0.6000968 102.4083 8.831372 -1.206451 1.321808 0.4820246 6.159724 -30.84152 6.388692 -0 26.89908 -0 -6.043646 -8.164379 -3.366904 -4.779449 13.41797 -20.9621 -0 6.386298 -0 -1.378623 -24.87182 19.54796 -1.141271 -1.088668 3.213112 1.547459 7.28945 -7.837685 1.132882 22.1417 7.963715 4.759838 -23.15799 8.30703 5.889761 -17.27416 10.79069 88.69747 36.30713 -23.49337 -0 0 13.78672 -8.713821 9.554353 4.710896 5.674555 -20.48953 -3.118884 -96.10245 38.68696 24.03074 0 0 -24.61206 -7.936026 16.30188 25.49122
0.7532297 101.5957 11.93106 -1.489612 2.309245 0.6411087 6.822417 -34.28538 5.827221 -0 22.17858 -0 -5.734484 -5.70888 -2.88427 -4.64606 13.96821 -19.80988 -0 7.180559 -0 -1.352432 -25.43322 18.29709 -1.238244 -0.9268175 2.878635 1.915965 7.302636 -8.050463 1.061291 22.11258 7.859106 4.567548 -23.32619 8.185385 5.887021 -16.99872 10.91752 88.84842 36.16241 -23.65471 -0 0 13.12008 -9.043008 9.834726 5.123855 5.368634 -20.40982 -3.31252 -95.16741 37.95938 23.06582 0 0 -24.49153 -7.857665 16.09326 25.23675
0.9124201 100.6946 15.66818 -1.673535 3.339583 0.9332103 7.225569 -36.51003 5.153683 -0 17.87854 -0 -5.610641 -3.588407 -2.466416 -4.648629 14.64594 -18.5843 -0 8.660298 -0 -1.857738 -25.52205 16.69424 -1.310172 -0.7798822 2.610674 2.220185 7.345957 -8.233579 1.000234 22.07115 7.773339 4.407158 -23.44815 8.073356 5.880942 -16.7524 11.02788 88.99318 36.08155 -23.79186 -0 0 12.50863 -9.421124 10.15816 5.512686 5.130086 -20.38497 -3.466864 -94.30185 37.23486 22.16688 0 0 -24.42797 -7.685071 15.89088 24.926
1.062178 99.85119 20.08123 -1.828739 4.330936 1.384374 7.45746 -37.15162 4.466045 -0 14.63064 -0 -5.765962 -2.050004 -2.178295 -4.71919 15.3559 -17.27586 -0 11.22607 -0 -3.023829 -24.81159 14.73855 -1.366151 -0.6433481 2.415327 2.462792 7.416985 -8.380116 0.947847 22.0264 7.699475 4.270971 -23.52466 7.964618 5.86662 -16.54236 11.12653 89.09977 36.06701 -23.85663 -0 0 11.9596 -9.886433 10.5299 5.903458 4.941208 -20.39784 -3.579243 -93.50467 36.50116 21.34657 0 0 -24.37915 -7.422833 15.69041 24.55591
